<svg width="19" height="20" viewBox="0 0 19 20" fill="none" xmlns="http://www.w3.org/2000/svg">
<g clip-path="url(#clip0_2_8)">
<path d="M19 11.0157C18.9946 13.2651 18.1318 15.4306 16.5823 17.0838C15.0327 18.7369 12.9094 19.7574 10.6322 19.9433C10.6322 19.9433 4.62739 20.0874 2.63294 19.9254C2.27235 19.8838 1.92919 19.7496 1.63781 19.5364C1.34642 19.3232 1.11701 19.0384 0.972534 18.7105C1.24969 18.8421 1.5483 18.9243 1.85457 18.9535C2.51281 19.0085 3.61865 19.0361 5.16715 19.0361C7.44135 19.0361 9.91303 18.9745 9.93936 18.9745H9.98215C12.2461 18.7903 14.3767 17.845 16.0163 16.2972C17.656 14.7495 18.7048 12.6936 18.9868 10.4746C18.9951 10.6447 19 10.8278 19 11.0157Z" fill="white"/>
<path d="M18.2545 9.05071C18.25 11.3007 17.3876 13.467 15.8379 15.1208C14.2883 16.7747 12.1645 17.7956 9.88671 17.9815C9.88671 17.9815 3.8836 18.1306 1.89243 17.9621C0.822796 17.8665 0.0246839 16.8832 0 15.7978L0.0329118 2.21611C0.0625325 1.13398 0.865581 0.152285 1.93522 0.0664277C3.92803 -0.0955681 9.93114 0.0858672 9.93114 0.0858672C12.2072 0.281913 14.3255 1.31195 15.8669 2.97212C17.4082 4.63228 18.2604 6.8016 18.2545 9.05071Z" fill="white"/>
</g>
<defs>
<clipPath id="clip0_2_8">
<rect width="19" height="20" fill="white"/>
</clipPath>
</defs>
</svg>
