<svg width="46" height="46" viewBox="0 0 46 46" fill="none" xmlns="http://www.w3.org/2000/svg">
<path fill-rule="evenodd" clip-rule="evenodd" d="M14.1342 2.33965C16.3393 2.23813 17.0424 2.21558 22.6594 2.21558C28.2764 2.21558 28.9795 2.24001 31.1827 2.33965C33.3859 2.43928 34.8898 2.79081 36.2057 3.30025C37.5836 3.82098 38.8337 4.63495 39.8676 5.68767C40.9203 6.71972 41.7324 7.96794 42.2513 9.34776C42.7626 10.6637 43.1123 12.1675 43.2138 14.367C43.3153 16.5758 43.3378 17.2789 43.3378 22.894C43.3378 28.511 43.3134 29.2141 43.2138 31.4192C43.1141 33.6186 42.7626 35.1225 42.2513 36.4384C41.7324 37.8184 40.919 39.0687 39.8676 40.1022C38.8337 41.155 37.5836 41.9671 36.2057 42.4859C34.8898 42.9972 33.3859 43.3469 31.1864 43.4484C28.9795 43.5499 28.2764 43.5725 22.6594 43.5725C17.0424 43.5725 16.3393 43.548 14.1342 43.4484C11.9348 43.3488 10.4309 42.9972 9.11502 42.4859C7.73505 41.967 6.48476 41.1536 5.45118 40.1022C4.39917 39.0696 3.58507 37.8199 3.06564 36.4403C2.55619 35.1244 2.20654 33.6205 2.10503 31.4211C2.00352 29.2122 1.98096 28.5092 1.98096 22.894C1.98096 17.277 2.0054 16.5739 2.10503 14.3707C2.20466 12.1675 2.55619 10.6637 3.06564 9.34776C3.58584 7.9681 4.40056 6.71843 5.45306 5.68579C6.48517 4.63402 7.73421 3.81993 9.11314 3.30025C10.429 2.79081 11.9329 2.44116 14.1324 2.33965H14.1342ZM31.0154 6.06177C28.8347 5.96213 28.1805 5.94146 22.6594 5.94146C17.1383 5.94146 16.4841 5.96213 14.3034 6.06177C12.2863 6.15388 11.1923 6.49037 10.4629 6.77423C9.49851 7.1502 8.8086 7.59573 8.08486 8.31948C7.39879 8.98692 6.87081 9.79946 6.53961 10.6975C6.25576 11.4269 5.91926 12.521 5.82715 14.538C5.72751 16.7187 5.70684 17.3729 5.70684 22.894C5.70684 28.4152 5.72751 29.0694 5.82715 31.25C5.91926 33.2671 6.25576 34.3612 6.53961 35.0905C6.87047 35.9872 7.39871 36.8012 8.08486 37.4686C8.75221 38.1547 9.56619 38.683 10.4629 39.0138C11.1923 39.2977 12.2863 39.6342 14.3034 39.7263C16.4841 39.8259 17.1364 39.8466 22.6594 39.8466C28.1824 39.8466 28.8347 39.8259 31.0154 39.7263C33.0325 39.6342 34.1265 39.2977 34.8559 39.0138C35.8203 38.6378 36.5102 38.1923 37.2339 37.4686C37.9201 36.8012 38.4483 35.9872 38.7792 35.0905C39.063 34.3612 39.3995 33.2671 39.4917 31.25C39.5913 29.0694 39.612 28.4152 39.612 22.894C39.612 17.3729 39.5913 16.7187 39.4917 14.538C39.3995 12.521 39.063 11.4269 38.7792 10.6975C38.4032 9.73313 37.9577 9.04322 37.2339 8.31948C36.5665 7.63346 35.7539 7.10548 34.8559 6.77423C34.1265 6.49037 33.0325 6.15388 31.0154 6.06177ZM20.0182 29.2686C21.4932 29.8826 23.1357 29.9655 24.6651 29.5031C26.1944 29.0406 27.5158 28.0616 28.4035 26.7331C29.2912 25.4047 29.6902 23.8093 29.5323 22.2193C29.3743 20.6294 28.6693 19.1437 27.5376 18.0158C26.8162 17.2948 25.9439 16.7428 24.9835 16.3994C24.0232 16.056 22.9986 15.9298 21.9836 16.0299C20.9686 16.13 19.9884 16.454 19.1136 16.9783C18.2388 17.5027 17.4912 18.2146 16.9245 19.0626C16.3579 19.9106 15.9863 20.8737 15.8365 21.8826C15.6867 22.8914 15.7625 23.921 16.0584 24.897C16.3542 25.8731 16.8628 26.7714 17.5475 27.5273C18.2323 28.2833 19.0761 28.878 20.0182 29.2686ZM15.1437 15.3783C16.1307 14.3914 17.3024 13.6085 18.5919 13.0743C19.8815 12.5402 21.2636 12.2653 22.6594 12.2653C24.0552 12.2653 25.4373 12.5402 26.7269 13.0743C28.0164 13.6085 29.1881 14.3914 30.1751 15.3783C31.162 16.3653 31.945 17.537 32.4791 18.8266C33.0132 20.1161 33.2882 21.4982 33.2882 22.894C33.2882 24.2898 33.0132 25.6719 32.4791 26.9615C31.945 28.251 31.162 29.4227 30.1751 30.4097C28.1818 32.403 25.4783 33.5228 22.6594 33.5228C19.8405 33.5228 17.137 32.403 15.1437 30.4097C13.1504 28.4164 12.0306 25.7129 12.0306 22.894C12.0306 20.0751 13.1504 17.3716 15.1437 15.3783ZM35.6455 13.8481C35.89 13.6174 36.0858 13.34 36.2213 13.0322C36.3567 12.7245 36.429 12.3927 36.4339 12.0565C36.4388 11.7203 36.3762 11.3866 36.2498 11.075C36.1234 10.7634 35.9358 10.4804 35.698 10.2426C35.4603 10.0049 35.1772 9.81727 34.8657 9.69087C34.5541 9.56447 34.2204 9.50186 33.8842 9.50676C33.548 9.51166 33.2162 9.58397 32.9084 9.7194C32.6007 9.85483 32.3232 10.0506 32.0925 10.2952C31.6438 10.7709 31.3982 11.4027 31.4077 12.0565C31.4172 12.7103 31.6812 13.3347 32.1436 13.7971C32.606 14.2595 33.2303 14.5234 33.8842 14.533C34.538 14.5425 35.1698 14.2968 35.6455 13.8481Z" fill="white"/>
</svg>
