<svg width="40" height="40" viewBox="0 0 40 40" fill="none" xmlns="http://www.w3.org/2000/svg">
<path fill-rule="evenodd" clip-rule="evenodd" d="M15.6255 15.0442H21.7279V18.0839C22.607 16.3357 24.8613 14.7649 28.2477 14.7649C34.7395 14.7649 36.2808 18.2449 36.2808 24.63V36.4553H29.7084V26.0841C29.7084 22.448 28.8293 20.3974 26.5915 20.3974C23.4877 20.3974 22.1978 22.6074 22.1978 26.0825V36.4553H15.6255V15.0442ZM4.35551 36.176H10.9279V14.7649H4.35551V36.176ZM11.8694 7.78339C11.8696 8.33428 11.7604 8.87972 11.548 9.38801C11.3356 9.8963 11.0242 10.3573 10.6321 10.7442C9.83752 11.5339 8.76197 11.976 7.64169 11.9733C6.52338 11.9725 5.45032 11.5316 4.65455 10.7459C4.26384 10.3576 3.95358 9.89611 3.74156 9.38775C3.52953 8.87939 3.4199 8.33419 3.41895 7.78339C3.41895 6.67102 3.86258 5.60629 4.65619 4.8209C5.45126 4.03411 6.52478 3.59301 7.64333 3.59351C8.76392 3.59351 9.8385 4.0355 10.6321 4.8209C11.4241 5.60629 11.8694 6.67102 11.8694 7.78339Z" fill="white"/>
</svg>
