<svg width="42" height="42" viewBox="0 0 42 42" fill="none" xmlns="http://www.w3.org/2000/svg">
<g clip-path="url(#clip0_6_38)">
<path d="M41.831 8.01658C40.3227 8.68924 38.7024 9.14375 36.999 9.34918C38.7566 8.29072 40.0715 6.62483 40.6984 4.66235C39.0471 5.64951 37.2399 6.34436 35.3552 6.7167C34.0879 5.35477 32.4092 4.45205 30.5798 4.14871C28.7505 3.84537 26.8728 4.15838 25.2383 5.03914C23.6038 5.91989 22.3039 7.31912 21.5405 9.01958C20.7771 10.72 20.5929 12.6266 21.0164 14.4432C17.6705 14.2742 14.3972 13.3989 11.4092 11.8742C8.42107 10.3496 5.78491 8.20958 3.67176 5.59317C2.94922 6.8476 2.53376 8.30201 2.53376 9.85095C2.53296 11.2454 2.87414 12.6184 3.52704 13.8483C4.17994 15.0781 5.12437 16.1268 6.27653 16.9012C4.94033 16.8584 3.6336 16.495 2.46512 15.8413V15.9504C2.46499 17.9061 3.13714 19.8016 4.36754 21.3153C5.59794 22.829 7.3108 23.8677 9.21547 24.2551C7.97592 24.5927 6.67634 24.6424 5.4149 24.4005C5.95228 26.0833 6.99906 27.5548 8.40869 28.6091C9.81832 29.6633 11.5202 30.2475 13.2762 30.2799C10.2954 32.635 6.61411 33.9125 2.82458 33.9069C2.15331 33.9071 1.4826 33.8676 0.815918 33.7887C4.66251 36.2779 9.14022 37.5989 13.7133 37.5938C29.1938 37.5938 37.6565 24.6896 37.6565 13.4979C37.6565 13.1343 37.6475 12.767 37.6312 12.4034C39.2774 11.2053 40.6983 9.72168 41.8274 8.02203L41.831 8.01658Z" fill="white"/>
</g>
<defs>
<clipPath id="clip0_6_38">
<rect width="41.0151" height="41.0151" fill="white" transform="translate(0.815918 0.307373)"/>
</clipPath>
</defs>
</svg>
