<svg width="101" height="24" viewBox="0 0 101 24" fill="none" xmlns="http://www.w3.org/2000/svg">
<path d="M0 6.03861L5.38753 0.520996H12.2927L4.18428 8.69444L0 12.9112V6.03861Z" fill="#4CA4DA"/>
<path d="M11.3713 15.9024L4.18428 8.69373L0 12.9105L7.10027 20.1409L11.3713 15.9024Z" fill="#3578B4"/>
<path d="M19.7615 7.64233V14.8293L14.6124 20.141H7.10022L19.7615 7.64233Z" fill="#4CA4DA"/>
<path d="M33.853 19.9763C32.7195 19.9763 31.6596 19.7849 30.6733 19.4022C29.687 19.0047 28.8258 18.4527 28.0898 17.7461C27.3684 17.0395 26.7943 16.1857 26.3674 15.1846C25.9405 14.1836 25.7271 13.0722 25.7271 11.8504C25.7271 10.6285 25.9405 9.51711 26.3674 8.51609C26.809 7.50035 27.3979 6.63918 28.1339 5.93258C28.87 5.21125 29.7238 4.65186 30.6953 4.2544C31.6816 3.85693 32.7195 3.6582 33.8088 3.6582C34.9865 3.6582 36.0022 3.82749 36.856 4.16607C37.7098 4.50465 38.4312 4.93892 39.02 5.46887C39.6088 5.9841 40.0652 6.55085 40.389 7.16913C40.7276 7.78741 40.9631 8.37624 41.0956 8.93564L37.8055 9.97346C37.7466 9.70848 37.6289 9.4067 37.4522 9.06812C37.2903 8.72954 37.0548 8.41304 36.7456 8.11863C36.4365 7.80949 36.039 7.55923 35.5532 7.36786C35.0822 7.16177 34.5007 7.05872 33.8088 7.05872C33.2789 7.05872 32.7489 7.15441 32.219 7.34578C31.689 7.53715 31.2106 7.83157 30.7837 8.22903C30.3568 8.61178 30.0108 9.10492 29.7458 9.70848C29.4809 10.312 29.3484 11.026 29.3484 11.8504C29.3484 12.5864 29.4735 13.2415 29.7238 13.8156C29.974 14.3897 30.3052 14.8755 30.7174 15.273C31.1443 15.6704 31.6228 15.9722 32.1527 16.1783C32.6974 16.3844 33.2641 16.4874 33.853 16.4874C34.5301 16.4874 35.1116 16.3918 35.5974 16.2004C36.0832 15.9943 36.488 15.744 36.8119 15.4496C37.1357 15.1405 37.386 14.8166 37.5626 14.478C37.754 14.1395 37.8865 13.8303 37.9601 13.5506L41.2944 14.5001C41.1619 15.0448 40.9263 15.6336 40.5878 16.2666C40.2639 16.8996 39.8002 17.4958 39.1966 18.0552C38.6078 18.5999 37.8718 19.0562 36.9885 19.4243C36.1053 19.7923 35.0601 19.9763 33.853 19.9763Z" fill="white"/>
<path d="M43.6893 19.6451V3.98942H47.2223V19.6451H43.6893Z" fill="white"/>
<path d="M57.6331 7.3237V19.6451H54.1443V7.3237H49.3306V3.98942H62.469V7.3237H57.6331Z" fill="white"/>
<path d="M72.0377 7.3237V19.6451H68.5489V7.3237H63.7352V3.98942H76.8736V7.3237H72.0377Z" fill="white"/>
<path d="M78.9892 19.6451V3.98942H82.5222V19.6451H78.9892Z" fill="white"/>
<path d="M93.1318 19.9763C91.9983 19.9763 90.9384 19.7849 89.9521 19.4022C88.9658 19.0047 88.1046 18.4527 87.3686 17.7461C86.6472 17.0395 86.0731 16.1857 85.6462 15.1846C85.2193 14.1836 85.0059 13.0722 85.0059 11.8504C85.0059 10.6285 85.2193 9.51711 85.6462 8.51609C86.0878 7.50035 86.6767 6.63918 87.4127 5.93258C88.1488 5.21125 89.0026 4.65186 89.9741 4.2544C90.9604 3.85693 91.9983 3.6582 93.0876 3.6582C94.2653 3.6582 95.281 3.82749 96.1348 4.16607C96.9886 4.50465 97.71 4.93892 98.2988 5.46887C98.8876 5.9841 99.344 6.55085 99.6678 7.16913C100.006 7.78741 100.242 8.37624 100.374 8.93564L97.0843 9.97346C97.0254 9.70848 96.9077 9.4067 96.731 9.06812C96.5691 8.72954 96.3336 8.41304 96.0244 8.11863C95.7153 7.80949 95.3178 7.55923 94.832 7.36786C94.361 7.16177 93.7795 7.05872 93.0876 7.05872C92.5577 7.05872 92.0277 7.15441 91.4978 7.34578C90.9678 7.53715 90.4894 7.83157 90.0625 8.22903C89.6356 8.61178 89.2896 9.10492 89.0246 9.70848C88.7597 10.312 88.6272 11.026 88.6272 11.8504C88.6272 12.5864 88.7523 13.2415 89.0026 13.8156C89.2528 14.3897 89.584 14.8755 89.9962 15.273C90.4231 15.6704 90.9016 15.9722 91.4315 16.1783C91.9762 16.3844 92.5429 16.4874 93.1318 16.4874C93.8089 16.4874 94.3904 16.3918 94.8762 16.2004C95.362 15.9943 95.7668 15.744 96.0907 15.4496C96.4145 15.1405 96.6648 14.8166 96.8414 14.478C97.0328 14.1395 97.1653 13.8303 97.2389 13.5506L100.573 14.5001C100.441 15.0448 100.205 15.6336 99.8666 16.2666C99.5427 16.8996 99.079 17.4958 98.4754 18.0552C97.8866 18.5999 97.1506 19.0562 96.2673 19.4243C95.3841 19.7923 94.3389 19.9763 93.1318 19.9763Z" fill="white"/>
</svg>
