<svg width="115" height="31" viewBox="0 0 115 31" fill="none" xmlns="http://www.w3.org/2000/svg">
<path d="M62.7684 30.7148H55.7693V0H62.7684L74.9798 19.062H75.0541V0H82.0531V30.7148H75.0541L62.8426 11.6528H62.7684V30.7148Z" fill="#ffffff"/>
<path d="M83.7277 30.7137L96.1254 0H102.602L115 30.7137H107.48L99.4004 9.49271H99.3261L91.2476 30.7137H83.7277Z" fill="#ffffff"/>
<path d="M33.6917 18.4359H50.8174V12.2034H33.6917V18.4359Z" fill="#ffffff"/>
<path d="M51.2641 0.10498H33.6917V6.20499H51.2641V0.10498Z" fill="#ffffff"/>
<path d="M51.2641 24.5085H33.6917V30.6086H51.2641V24.5085Z" fill="#ffffff"/>
<path d="M23.1937 30.7148L15.9343 20.2534L8.67366 30.7148H0L11.6151 14.1842L1.93623 0H10.2752L15.9343 8.37665L21.5933 0H30.3047L20.2523 14.1842L32.2466 30.7148H23.1937Z" fill="#ffffff"/>
</svg>
